<svg xmlns="http://www.w3.org/2000/svg" width="22" height="22"><path d="M15.28 12.56H8.67l1.56-3.89h2.57l.54-1.17h-2.33l-.78-1.17.78-1.17h2.33l-.54-1.17h-2.57L8.52 6.32l.66 1.17-4.63 5.83c-.32.4-.54 1.01-.54 1.56 0 1.17.86 2.17 1.98 2.33-.01 0 8.13.78 9.29.78 1.5 0 2.72-1.22 2.72-2.72 0-1.5-1.22-2.72-2.72-2.72v.01Zm-8.84 3.5c-.64 0-1.17-.52-1.17-1.17 0-.65.52-1.17 1.17-1.17.65 0 1.17.52 1.17 1.17 0 .65-.52 1.17-1.17 1.17Zm8.94.78c-.86 0-1.56-.7-1.56-1.56 0-.86.7-1.56 1.56-1.56.86 0 1.56.7 1.56 1.56 0 .86-.7 1.56-1.56 1.56ZM3.2 20.01H2V2h1.2v18.01ZM5.2 2v1l-2 1V2h2Zm0 17v1h-2v-2l2 1ZM18.8 2H20v18h-1.2V2Zm0 0v2l-2-1V2h2Zm0 16v2h-2v-1l2-1Z" fill="#9F74B3"/></svg>