<!DOCTYPE svg PUBLIC "-//W3C//DTD SVG 1.1//EN" "http://www.w3.org/Graphics/SVG/1.1/DTD/svg11.dtd">
<!-- Uploaded to: SVG Repo, www.svgrepo.com, Transformed by: SVG Repo Mixer Tools -->
<svg width="800px" height="800px" viewBox="0 0 24 24" fill="none" xmlns="http://www.w3.org/2000/svg" stroke="#000000">
<g id="SVGRepo_bgCarrier" stroke-width="0"/>
<g id="SVGRepo_tracerCarrier" stroke-linecap="round" stroke-linejoin="round"/>
<g id="SVGRepo_iconCarrier"> <path d="M15.5 9L15.5 15C15.5 15.465 15.5 15.6975 15.5511 15.8882C15.6898 16.4059 16.0941 16.8102 16.6118 16.9489C16.8025 17 17.035 17 17.5 17C17.965 17 18.1975 17 18.3882 16.9489C18.9059 16.8102 19.3102 16.4059 19.4489 15.8882C19.5 15.6975 19.5 15.465 19.5 15V9C19.5 8.53501 19.5 8.30252 19.4489 8.11177C19.3102 7.59413 18.9059 7.18981 18.3882 7.05111C18.1975 7 17.965 7 17.5 7C17.035 7 16.8025 7 16.6118 7.05111C16.0941 7.18981 15.6898 7.59413 15.5511 8.11177C15.5 8.30252 15.5 8.53501 15.5 9Z" stroke="#ffffff" stroke-width="1.5"/> <path d="M4.5 9L4.5 15C4.5 15.465 4.5 15.6975 4.55111 15.8882C4.68981 16.4059 5.09413 16.8102 5.61177 16.9489C5.80252 17 6.03501 17 6.5 17C6.96499 17 7.19748 17 7.38823 16.9489C7.90587 16.8102 8.31019 16.4059 8.44889 15.8882C8.5 15.6975 8.5 15.465 8.5 15V9C8.5 8.53501 8.5 8.30252 8.44889 8.11177C8.31019 7.59413 7.90587 7.18981 7.38823 7.05111C7.19748 7 6.96499 7 6.5 7C6.03501 7 5.80252 7 5.61177 7.05111C5.09413 7.18981 4.68981 7.59413 4.55111 8.11177C4.5 8.30252 4.5 8.53501 4.5 9Z" stroke="#ffffff" stroke-width="1.5"/> <path d="M5 10H4C2.89543 10 2 10.8954 2 12C2 13.1046 2.89543 14 4 14H5M9 12H15M19 14H20C21.1046 14 22 13.1046 22 12C22 10.8954 21.1046 10 20 10H19" stroke="#ffffff" stroke-width="1.5"/> </g>
</svg>