<svg width="18" height="18" viewBox="0 0 18 18" xmlns="http://www.w3.org/2000/svg">
 <defs>
  <linearGradient y2="1.03017" x2="-0.03017" y1="0.32328" x1="-0.73276" id="b3c2bc94-8c7c-48a2-9719-6ee899a43a97">
   <stop stop-color="#86d633" offset="0"/>
   <stop stop-color="#5e9624" offset="1"/>
  </linearGradient>
 </defs>
 <title>Icon-networking-61</title>
 <g>
  <title>Layer 1</title>
  <circle id="svg_2" fill="url(#b3c2bc94-8c7c-48a2-9719-6ee899a43a97)" r="1.16" cy="9" cx="9.04"/>
  <path id="svg_4" transform="rotate(134.92 13.18 16.93)" fill="#50e6ff" d="m15.79,24.21l0.94,0a0.3,0.3 0 0 1 0.3,0.3l0,6.94a0.6,0.6 0 0 1 -0.6,0.6l-0.94,0a0,0 0 0 1 0,0l0,-7.54a0.3,0.3 0 0 1 0.3,-0.3z"/>
  <path id="svg_5" transform="rotate(44.92 5.66 -0.16)" fill="#1490df" d="m8.22,2.75l0.94,0a0.3,0.3 0 0 1 0.3,0.3l0,7.43a0,0 0 0 1 0,0l-0.94,0a0.6,0.6 0 0 1 -0.6,-0.6l0,-6.83a0.3,0.3 0 0 1 0.3,-0.3z"/>
  <path id="svg_6" transform="rotate(45.08 12.32 -7.28)" fill="#50e6ff" d="m26.47,0l0.94,0a0.6,0.6 0 0 1 0.6,0.6l0,6.94a0.3,0.3 0 0 1 -0.3,0.3l-0.94,0a0.3,0.3 0 0 1 -0.3,-0.3l0,-7.54a0,0 0 0 1 0,0z"/>
  <path id="svg_7" transform="rotate(135.08 30.36 0.990002)" fill="#1490df" d="m45.17,3.9l0.94,0a0,0 0 0 1 0,0l0,7.43a0.3,0.3 0 0 1 -0.3,0.3l-0.95,0a0.3,0.3 0 0 1 -0.3,-0.3l0,-6.83a0.6,0.6 0 0 1 0.6,-0.6l0.01,0z"/>
 </g>
</svg>